<svg xmlns="http://www.w3.org/2000/svg" viewBox="0 0 157.11 157.1"><defs><style>.cls-1{font-size:14px;font-family:Rubik-Black, Rubik;font-weight:800;}</style></defs><title>Recurso 1</title><g id="Capa_2" data-name="Capa 2"><g id="Capa_1-2" data-name="Capa 1"><text class="cls-1" transform="matrix(-1, -0.05, 0.05, -1, 79.82, 145.37)">S</text><text class="cls-1" transform="matrix(-0.98, -0.22, 0.22, -0.98, 69.18, 144.75)">C</text><text class="cls-1" transform="translate(58.29 142.27) rotate(-158)">R</text><text class="cls-1" transform="translate(48.17 138.12) rotate(-148.46)">O</text><text class="cls-1" transform="translate(38.61 132.09) rotate(-139.48)">L</text><text class="cls-1" transform="matrix(-0.66, -0.75, 0.75, -0.66, 31.29, 125.75)">L</text><text class="cls-1" transform="translate(25.16 118.48) rotate(-125.72)"> </text><text class="cls-1" transform="translate(22.99 115.4) rotate(-122.49)"> </text><text class="cls-1" transform="translate(21.01 112.28) rotate(-118.45)">·</text><text class="cls-1" transform="matrix(-0.41, -0.91, 0.91, -0.41, 18.35, 107.21)"> </text><text class="cls-1" transform="matrix(-0.36, -0.93, 0.93, -0.36, 16.83, 103.8)"> </text><text class="cls-1" transform="translate(15.4 100.46) rotate(-104.92)">S</text><text class="cls-1" transform="translate(12.7 90.15) rotate(-95.53)">C</text><text class="cls-1" transform="translate(11.71 79.04) rotate(-86.15)">R</text><text class="cls-1" transform="matrix(0.23, -0.97, 0.97, 0.23, 12.5, 68.13)">O</text><text class="cls-1" transform="translate(15.25 57.16) rotate(-67.56)">L</text><text class="cls-1" transform="translate(19.01 48.23) rotate(-59.21)">L</text><text class="cls-1" transform="translate(24.04 40.14) rotate(-53.68)"> </text><text class="cls-1" transform="matrix(0.64, -0.77, 0.77, 0.64, 26.28, 37.16)"> </text><text class="cls-1" transform="matrix(0.69, -0.72, 0.72, 0.69, 28.65, 34.29)">·</text><text class="cls-1" transform="translate(32.63 30.2) rotate(-42.44)"> </text><text class="cls-1" transform="matrix(0.77, -0.63, 0.63, 0.77, 35.42, 27.7)"> </text><text class="cls-1" transform="matrix(0.84, -0.55, 0.55, 0.84, 38.16, 25.28)">S</text><text class="cls-1" transform="matrix(0.92, -0.4, 0.4, 0.92, 47.12, 19.51)">C</text><text class="cls-1" transform="translate(57.35 15.11) rotate(-14.12)">R</text><text class="cls-1" transform="translate(67.99 12.5) rotate(-4.58)">O</text><text class="cls-1" transform="translate(79.25 11.73) rotate(4.28)">L</text><text class="cls-1" transform="translate(88.92 12.52) rotate(12.62)">L</text><text class="cls-1" transform="matrix(0.95, 0.31, -0.31, 0.95, 98.15, 14.78)"> </text><text class="cls-1" transform="matrix(0.93, 0.37, -0.37, 0.93, 101.71, 15.98)"> </text><text class="cls-1" transform="translate(105.16 17.34) rotate(25.51)">·</text><text class="cls-1" transform="matrix(0.87, 0.49, -0.49, 0.87, 110.29, 19.87)"> </text><text class="cls-1" transform="translate(113.53 21.75) rotate(32.79)"> </text><text class="cls-1" transform="translate(116.66 23.6) rotate(38.95)">S</text><text class="cls-1" transform="translate(124.92 30.35) rotate(48.27)">C</text><text class="cls-1" transform="translate(132.28 38.71) rotate(57.72)">R</text><text class="cls-1" transform="matrix(0.39, 0.92, -0.92, 0.39, 138.08, 48.01)">O</text><text class="cls-1" transform="translate(142.31 58.47) rotate(76.33)">L</text><text class="cls-1" transform="translate(144.54 67.91) rotate(84.68)">L</text><text class="cls-1" transform="translate(145.26 77.4) rotate(90.93)"> </text><text class="cls-1" transform="translate(145.2 81.15) rotate(93.31)"> </text><text class="cls-1" transform="translate(144.98 84.84) rotate(97.33)">·</text><text class="cls-1" transform="translate(144.17 90.52) rotate(101.41)"> </text><text class="cls-1" transform="matrix(-0.25, 0.97, -0.97, -0.25, 143.4, 94.19)"> </text><text class="cls-1" transform="translate(142.62 97.71) rotate(110.86)">S</text><text class="cls-1" transform="matrix(-0.5, 0.86, -0.86, -0.5, 138.77, 107.66)">C</text><text class="cls-1" transform="translate(133.08 117.25) rotate(129.75)">R</text><text class="cls-1" transform="matrix(-0.76, 0.65, -0.65, -0.76, 126.05, 125.62)">O</text><text class="cls-1" transform="translate(117.39 132.92) rotate(148.18)">L</text><text class="cls-1" transform="translate(109.12 137.97) rotate(156.53)">L</text><text class="cls-1" transform="translate(100.34 141.59) rotate(162.08)"> </text><text class="cls-1" transform="translate(96.76 142.71) rotate(165.33)"> </text><text class="cls-1" transform="matrix(-0.98, 0.18, -0.18, -0.98, 93.18, 143.64)">·</text><text class="cls-1" transform="translate(87.54 144.62) rotate(173.46)"> </text><text class="cls-1" transform="translate(83.8 145.02) rotate(176.67)"> </text></g></g></svg>