<svg xmlns="http://www.w3.org/2000/svg" viewBox="0 0 18 18"><title>Recurso 4</title><g id="Capa_2" data-name="Capa 2"><g id="Capa_1-2" data-name="Capa 1"><path d="M16,0a2,2,0,0,1,1.41.59A2,2,0,0,1,18,2V16a2,2,0,0,1-2,2H2a2,2,0,0,1-1.41-.59A2,2,0,0,1,0,16V2A2,2,0,0,1,.59.59,2,2,0,0,1,2,0Zm-.5,15.5V10.2a3.24,3.24,0,0,0-3.26-3.26,2.9,2.9,0,0,0-2.32,1.3V7.13H7.13V15.5H9.92V10.57a1.4,1.4,0,1,1,2.79,0V15.5ZM3.88,5.56A1.67,1.67,0,0,0,5.56,3.88,1.69,1.69,0,0,0,3.88,2.19,1.67,1.67,0,0,0,2.19,3.88,1.69,1.69,0,0,0,3.88,5.56ZM5.27,15.5V7.13H2.5V15.5Z"/></g></g></svg>