<svg xmlns="http://www.w3.org/2000/svg" viewBox="0 0 20 20"><title>Recurso 7</title><g id="Capa_2" data-name="Capa 2"><g id="Capa_1-2" data-name="Capa 1"><path d="M6.21,10l-1.33.89V9.11ZM9.47,7.82V5.34L5.31,8.12,7.16,9.36Zm5.23.3L10.53,5.34V7.82l2.31,1.54ZM5.31,11.88l4.16,2.78V12.18L7.16,10.64Zm5.22.3v2.48l4.17-2.78-1.86-1.24ZM10,8.74,8.12,10,10,11.26,11.88,10ZM20,10A10,10,0,1,1,10,0,10,10,0,0,1,20,10ZM16.18,8.12V8s0,0,0,0v0l0,0v0l0,0,0,0,0,0,0,0v0l0,0h0L10.3,3.91a.53.53,0,0,0-.59,0L4.05,7.67h0l0,0v0l0,0,0,0v0l0,0v0l0,0v0l0,0V8h0v4h0v.05l0,0v0l0,0v0l0,0,0,0,0,0,0,0v0l0,0h0L9.71,16.1a.49.49,0,0,0,.29.08.64.64,0,0,0,.3-.08L16,12.33h0l0,0v0l0,0,0,0,0,0,0,0v0l0,0v0l0,0V12h0V8.12Zm-1.06,2.77V9.11L13.79,10Z"/></g></g></svg>